<svg width="24" height="24" viewBox="0 0 24 24" fill="none" xmlns="http://www.w3.org/2000/svg">
<g filter="url(#filter0_b_439_1119)">
<rect y="24" width="24" height="24" rx="12" transform="rotate(-90 0 24)" fill="#FFEDE0" fill-opacity="0.56"/>
<rect x="0.25" y="23.75" width="23.5" height="23.5" rx="11.75" transform="rotate(-90 0.25 23.75)" stroke="#F5EFEB" stroke-opacity="0.32" stroke-width="0.5" style="mix-blend-mode:luminosity"/>
<path opacity="0.8" fill-rule="evenodd" clip-rule="evenodd" d="M13.9475 12.0009L9.44973 7.46527C9.11683 7.12914 9.11683 6.58702 9.44973 6.25089C9.60836 6.09032 9.82473 6 10.0504 6C10.2761 6 10.4924 6.09032 10.6511 6.25089L15.7495 11.3928C16.0835 11.7286 16.0835 12.2714 15.7495 12.6072L10.6513 17.7491C10.4924 17.9097 10.2761 18 10.0504 18C9.82473 18 9.60836 17.9097 9.44952 17.7491C9.11683 17.4129 9.11683 16.8708 9.44995 16.5347L13.9475 12.0009Z" fill="#242220" fill-opacity="0.48"/>
</g>
<defs>
<filter id="filter0_b_439_1119" x="-180" y="-180" width="384" height="384" filterUnits="userSpaceOnUse" color-interpolation-filters="sRGB">
<feFlood flood-opacity="0" result="BackgroundImageFix"/>
<feGaussianBlur in="BackgroundImageFix" stdDeviation="90"/>
<feComposite in2="SourceAlpha" operator="in" result="effect1_backgroundBlur_439_1119"/>
<feBlend mode="normal" in="SourceGraphic" in2="effect1_backgroundBlur_439_1119" result="shape"/>
</filter>
</defs>
</svg>
